<svg id="Layer_1" enable-background="new 0 0 512 512" height="512" viewBox="0 0 512 512" width="512" xmlns="http://www.w3.org/2000/svg"><g><g><path d="m117.968 464.5c-2.929 2.929-2.929 7.678 0 10.606l.028.028c1.461 1.461 3.371 2.19 5.282 2.19 1.92 0 3.842-.736 5.31-2.204 2.929-2.929 2.915-7.692-.014-10.621-2.928-2.927-7.678-2.927-10.606.001z"/><path d="m192.902 466.882c-3.711 1.84-5.229 6.34-3.389 10.051l.028.057c1.306 2.634 3.943 4.148 6.691 4.148 1.125 0 2.268-.254 3.345-.788 3.711-1.839 5.214-6.368 3.375-10.079s-6.339-5.228-10.05-3.389z"/><path d="m307.969 464.5c-2.929 2.929-2.929 7.678 0 10.606l.028.028c1.461 1.461 3.371 2.19 5.282 2.19 1.92 0 3.842-.736 5.31-2.204 2.929-2.929 2.915-7.692-.014-10.621-2.928-2.927-7.677-2.927-10.606.001z"/><path d="m376.229 481.138c1.125 0 2.268-.254 3.345-.788 3.711-1.839 5.214-6.368 3.375-10.079-1.84-3.711-6.34-5.228-10.051-3.389-3.711 1.84-5.229 6.34-3.389 10.051l.028.057c1.306 2.634 3.943 4.148 6.692 4.148z"/><path d="m497.728 314.6-28.792 2.919c-9.931.996-19.047 5.474-26.163 12.114v-39.119l21.386-23.91c15.236-17.005 15.049-44.613-.417-61.54l-19.392-21.235c-2.466-2.697-5.695-4.182-9.092-4.182-3.396 0-6.625 1.485-9.095 4.186l-19.387 21.23c-15.466 16.928-15.654 44.536-.418 61.54l21.416 23.914v13.26c-7.123-6.657-16.251-11.154-26.191-12.165l-28.784-2.89c-3.675-.377-7.332.801-10.026 3.232-2.7 2.437-4.248 5.962-4.248 9.671v28.744c0 22.904 18.474 43.418 41.187 45.729l28.062 2.834v48.705h-66.511c-4.142 0-7.5 3.358-7.5 7.5s3.358 7.5 7.5 7.5h131.297c2.445 0 4.434 1.977 4.434 4.406v45.524c0 2.403-2.03 4.434-4.434 4.434h-473.148c-2.388 0-4.405-2.031-4.405-4.434v-45.524c0-2.388 2.017-4.406 4.405-4.406h307.211c4.142 0 7.5-3.358 7.5-7.5s-3.358-7.5-7.5-7.5h-63.138v-22.825l28.057-2.833c22.713-2.278 41.191-22.792 41.191-45.73v-28.715c0-3.693-1.537-7.209-4.216-9.647-2.681-2.44-6.333-3.642-10.049-3.286l-28.792 2.919c-9.939.997-19.068 5.486-26.191 12.142v-39.145l21.415-23.913c15.236-17.005 15.049-44.613-.417-61.54l-19.392-21.235c-2.466-2.697-5.695-4.182-9.092-4.182s-6.626 1.485-9.096 4.186l-19.387 21.23c-15.466 16.928-15.654 44.536-.422 61.536l21.391 23.915v13.259c-7.123-6.657-16.251-11.153-26.19-12.163l-28.778-2.89c-3.665-.376-7.307.796-9.997 3.222-2.704 2.439-4.255 5.968-4.255 9.681v28.744c0 22.904 18.474 43.418 41.186 45.729l28.035 2.833v48.706h-164.259v-22.825l28.027-2.833c22.714-2.275 41.193-22.789 41.193-45.73v-28.715c0-3.702-1.536-7.222-4.215-9.659-2.672-2.432-6.314-3.629-10.022-3.274l-28.791 2.919c-9.94.997-19.068 5.486-26.192 12.142v-39.145l21.415-23.913c15.245-17.016 15.042-44.625-.441-61.536l-19.401-21.274c-2.478-2.673-5.699-4.146-9.072-4.146-3.374 0-6.595 1.473-9.114 4.19l-19.35 21.22c-15.494 16.922-15.697 44.532-.453 61.546l21.416 23.914v13.259c-7.123-6.657-16.25-11.153-26.19-12.165l-28.778-2.89c-3.665-.376-7.307.796-9.997 3.222-2.704 2.439-4.255 5.968-4.255 9.681v28.744c0 22.907 18.474 43.421 41.186 45.729l28.035 2.833v19.078.019 29.608h-49.816c-10.7 0-19.405 8.706-19.405 19.406v45.524c0 10.718 8.705 19.436 19.405 19.436h473.148c10.716 0 19.434-8.718 19.434-19.434v-45.524c0-10.7-8.718-19.406-19.434-19.406h-49.787v-22.826l28.029-2.833c22.713-2.278 41.191-22.792 41.191-45.73v-28.715c0-3.697-1.534-7.214-4.208-9.649-2.676-2.436-6.324-3.633-10.057-3.283zm-69.955 38.084-19.08-21.109c-2.777-3.072-7.52-3.313-10.593-.535-3.073 2.777-3.312 7.52-.535 10.593l19.069 21.097-15.41-1.556c-15.015-1.528-27.7-15.636-27.7-30.806v-26.499l26.55 2.666c15.015 1.528 27.699 15.636 27.699 30.806zm-136.591-20.241 26.552-2.692v26.497c0 15.193-12.68 29.3-27.693 30.806l-15.416 1.557 19.068-21.097c2.777-3.073 2.538-7.816-.535-10.593s-7.815-2.537-10.593.535l-19.08 21.11v-6.418c0-.007 0-.013 0-.019v-8.878c.001-15.195 12.681-29.302 27.697-30.808zm-52.911-75.849c-10.069-11.238-9.922-30.203.321-41.415l17.408-19.063 17.409 19.063c10.242 11.211 10.389 30.176.319 41.416l-10.242 11.437v-30.669c0-4.142-3.358-7.5-7.5-7.5s-7.5 3.358-7.5 7.5v30.651zm-19.965 85.039 19.07 21.098-15.411-1.558c-15.015-1.528-27.699-15.636-27.699-30.806v-26.496l26.522 2.663c15.014 1.526 27.698 15.633 27.698 30.806v15.312l-19.052-21.078c-2.777-3.072-7.52-3.313-10.593-.535s-3.312 7.521-.535 10.594zm-106.382-9.19 26.523-2.689v26.494c0 15.195-12.679 29.302-27.694 30.806l-15.404 1.557 19.084-21.094c2.779-3.072 2.542-7.814-.53-10.593s-7.815-2.541-10.593.53l-19.083 21.093v-15.296c0-15.195 12.68-29.302 27.697-30.808zm-52.94-75.849c-10.073-11.242-9.916-30.205.353-41.419l17.39-19.07 17.4 19.082c10.258 11.203 10.415 30.166.341 41.409l-10.242 11.437v-30.669c0-4.142-3.358-7.5-7.5-7.5s-7.5 3.358-7.5 7.5v30.669zm-19.963 85.041 19.084 21.094-15.401-1.556c-15.014-1.526-27.698-15.633-27.698-30.806v-26.496l26.521 2.663c15.015 1.528 27.699 15.636 27.699 30.806v15.324l-19.083-21.093c-2.778-3.07-7.521-3.309-10.593-.53-3.071 2.78-3.308 7.522-.529 10.594zm396.252-111.773c-4.142 0-7.5 3.358-7.5 7.5v30.669l-10.243-11.438c-10.069-11.238-9.922-30.203.321-41.415l17.408-19.063 17.409 19.063c10.242 11.211 10.389 30.176.315 41.419l-10.21 11.415v-30.651c0-4.141-3.358-7.499-7.5-7.499zm61.72 126.386c0 15.193-12.68 29.3-27.694 30.806l-15.416 1.558 19.07-21.098c2.777-3.073 2.538-7.816-.535-10.593s-7.816-2.537-10.593.535l-19.052 21.078v-6.387c0-.007 0-.013 0-.019v-8.889c-.022-15.186 12.644-29.288 27.668-30.794l26.552-2.692z"/><path d="m500.723 0h-489.474c-6.199 0-11.242 5.043-11.242 11.242v32.655c0 6.214 5.043 11.27 11.25 11.27l29.937-.034v12.518c0 15.17 12.342 27.513 27.512 27.513h63.733v12.484c0 15.17 12.342 27.513 27.512 27.513h12.841c15.155 0 27.484-12.342 27.484-27.513v-12.484h111.422v12.484c0 15.17 12.342 27.513 27.512 27.513h12.841c15.17 0 27.512-12.342 27.512-27.513v-12.484h63.733c15.154 0 27.483-12.342 27.483-27.513v-12.484h29.945c6.214 0 11.27-5.056 11.27-11.27v-32.655c-.001-6.199-5.057-11.242-11.271-11.242zm-315.448 107.648c0 6.899-5.6 12.513-12.484 12.513h-12.841c-6.899 0-12.512-5.613-12.512-12.513v-12.484h37.837zm179.287 0c0 6.899-5.613 12.513-12.512 12.513h-12.841c-6.899 0-12.512-5.613-12.512-12.513v-12.484h37.865zm132.431-67.481h-223.915c-4.142 0-7.5 3.358-7.5 7.5s3.358 7.5 7.5 7.5h182.7v12.484c0 6.899-5.6 12.513-12.483 12.513h-71.233-52.865-126.422-52.837-71.233c-6.899 0-12.512-5.613-12.512-12.513v-12.535l182.002.051c4.142-.005 7.496-3.366 7.492-7.508-.004-4.14-3.362-7.492-7.5-7.492-.003 0-223.181-.004-223.181-.004v-25.163h481.986v25.167z"/><path d="m166.356 182.925c4.142 0 7.5-3.358 7.5-7.5v-16.639c0-4.142-3.358-7.5-7.5-7.5s-7.5 3.358-7.5 7.5v16.639c0 4.142 3.358 7.5 7.5 7.5z"/><path d="m158.856 225.428c0 4.142 3.358 7.5 7.5 7.5s7.5-3.358 7.5-7.5v-16.639c0-4.142-3.358-7.5-7.5-7.5s-7.5 3.358-7.5 7.5z"/><path d="m123.641 166.07 12.047-11.423c3.006-2.85 3.132-7.597.282-10.603-2.851-3.005-7.597-3.132-10.603-.282l-12.047 11.423c-3.006 2.85-3.132 7.597-.282 10.603 1.475 1.555 3.457 2.339 5.444 2.339 1.852.001 3.708-.682 5.159-2.057z"/><path d="m214.259 168.128c1.989 0 3.975-.787 5.45-2.346 2.847-3.009 2.715-7.756-.294-10.603l-12.075-11.423c-3.011-2.847-7.757-2.715-10.603.294-2.847 3.009-2.715 7.756.294 10.603l12.075 11.423c1.451 1.372 3.304 2.052 5.153 2.052z"/><path d="m345.615 182.925c4.142 0 7.5-3.358 7.5-7.5v-16.639c0-4.142-3.358-7.5-7.5-7.5s-7.5 3.358-7.5 7.5v16.639c0 4.142 3.358 7.5 7.5 7.5z"/><path d="m338.115 225.428c0 4.142 3.358 7.5 7.5 7.5s7.5-3.358 7.5-7.5v-16.639c0-4.142-3.358-7.5-7.5-7.5s-7.5 3.358-7.5 7.5z"/><path d="m302.894 166.076 12.075-11.423c3.009-2.847 3.141-7.593.294-10.603-2.847-3.009-7.594-3.141-10.603-.294l-12.075 11.423c-3.009 2.847-3.141 7.593-.294 10.603 1.475 1.559 3.46 2.346 5.45 2.346 1.849 0 3.703-.68 5.153-2.052z"/><path d="m393.518 168.128c1.989 0 3.975-.787 5.45-2.346 2.847-3.009 2.715-7.756-.294-10.603l-12.075-11.423c-3.011-2.847-7.757-2.715-10.603.294-2.847 3.009-2.715 7.756.294 10.603l12.075 11.423c1.45 1.372 3.303 2.052 5.153 2.052z"/></g></g></svg>