<svg id="Capa_1" enable-background="new 0 0 512 512" height="512" viewBox="0 0 512 512" width="512" xmlns="http://www.w3.org/2000/svg"><g><path d="m133.801 335.848c-12.875 0-23.35 10.475-23.35 23.35s10.475 23.35 23.35 23.35 23.35-10.475 23.35-23.35-10.475-23.35-23.35-23.35zm0 31.699c-4.604 0-8.35-3.746-8.35-8.35s3.746-8.35 8.35-8.35 8.35 3.746 8.35 8.35-3.746 8.35-8.35 8.35z"/><path d="m170.314 66.287c0-20.134-16.38-36.514-36.513-36.514-20.134 0-36.514 16.38-36.514 36.514 0 20.133 16.38 36.513 36.514 36.513 20.133 0 36.513-16.38 36.513-36.513zm-58.027 0c0-11.863 9.651-21.514 21.514-21.514 11.862 0 21.513 9.651 21.513 21.514 0 11.862-9.651 21.513-21.513 21.513-11.863 0-21.514-9.651-21.514-21.513z"/><path d="m286.016 135.79c-12.875 0-23.35 10.475-23.35 23.35s10.475 23.35 23.35 23.35 23.35-10.475 23.35-23.35-10.475-23.35-23.35-23.35zm0 31.699c-4.604 0-8.35-3.746-8.35-8.35s3.746-8.35 8.35-8.35 8.35 3.746 8.35 8.35-3.746 8.35-8.35 8.35z"/><path d="m506.031 293.423-48.288-48.28v-33.78c8.908-1.388 15.755-9.089 15.755-18.38 0-4.142-3.358-7.5-7.5-7.5s-7.5 3.358-7.5 7.5c0 1.999-1.626 3.625-3.625 3.625h-46.607c-1.999 0-3.625-1.626-3.625-3.625v-43.778l18.06-8.361c5.636-2.61 12.102-2.61 17.738 0l9.043 4.187c5.478 2.536 9.017 8.074 9.017 14.11 0 4.142 3.358 7.5 7.5 7.5s7.5-3.358 7.5-7.5c0-11.858-6.954-22.74-17.715-27.723l-9.043-4.187c-9.642-4.463-20.7-4.463-30.342 0l-20.542 9.51-66.777-6.839c-9.379-13.771-25.182-22.833-43.063-22.833-25.354 0-46.521 18.218-51.129 42.248l-59.185-31.711c12.341-10.095 20.987-24.542 23.574-40.977l37.877 26.407c1.307.911 2.802 1.348 4.283 1.348 2.369 0 4.701-1.12 6.159-3.211 2.369-3.398 1.535-8.073-1.863-10.442l-46.106-32.144c-3.831-32.934-31.881-58.587-65.826-58.587-36.551 0-66.287 29.736-66.287 66.287 0 23.637 12.446 44.411 31.119 56.149l-13.668 196.892c-10.829 11.803-17.452 27.525-17.452 44.768v51.287c-16.331-.381-31.259 10.195-34.937 26.416-11.502-.284-22.486 4.072-25.309 16.518l-6.303 27.779c-2.966 13.076 7.318 25.904 20.686 25.904h168.07c4.142 0 7.5-3.358 7.5-7.5s-3.358-7.5-7.5-7.5h-168.07c-3.914 0-6.927-3.751-6.057-7.585l6.304-27.779c.646-2.848 3.136-4.836 6.057-4.836h211.695c2.92 0 5.411 1.989 6.058 4.837l6.303 27.778c.866 3.817-2.125 7.586-6.057 7.586h-19.897c-4.142 0-7.5 3.358-7.5 7.5s3.358 7.5 7.5 7.5h19.897c13.37 0 23.653-12.823 20.685-25.905l-6.303-27.779c-2.824-12.446-13.808-16.802-25.31-16.518-3.673-16.202-18.614-26.825-34.937-26.416v-51.287c0-17.242-6.622-32.964-17.45-44.767l-13.046-187.98 64.831 34.737c3.408 25.438 25.238 45.125 51.594 45.125 17.881 0 33.683-9.062 43.063-22.833l60.561-6.203v10.808c0 9.29 6.845 16.991 15.751 18.38v33.78l-48.288 48.28c-7.401 7.399-7.403 19.837-.001 27.238 10.653 10.653 23.376 17.558 36.558 24.452 16.655 8.711 33.059-13.668 19.691-26.922l-11.269-11.172 23.383-23.377c3.368-3.366 8.846-3.366 12.213 0l23.592 23.592-11.957 12.879c-12.797 13.785 4.546 35.612 20.895 26.067 12.126-7.082 24.175-13.869 34.212-23.907 8.166-7.775 10.117-20.345 1.61-28.85zm-423.517-227.136c0-28.28 23.007-51.287 51.287-51.287s51.287 23.007 51.287 51.287c0 28.279-23.007 51.287-51.287 51.287s-51.287-23.008-51.287-51.287zm51.287 66.287c7.195 0 14.119-1.168 20.611-3.297l12.306 177.32c-9.707-5.579-20.941-8.787-32.917-8.787s-23.209 3.208-32.916 8.787l12.309-177.318c6.491 2.128 13.413 3.295 20.607 3.295zm85.518 309.225h-171.037c2.909-6.71 9.598-11.416 17.365-11.416h136.307c7.768 0 14.456 4.705 17.365 11.416zm-34.232-26.416h-102.573v-51.287c0-28.279 23.007-51.287 51.287-51.287s51.287 23.007 51.287 51.287v51.287zm100.929-219.173c-20.441 0-37.071-16.63-37.071-37.071 0-20.44 16.63-37.07 37.071-37.07s37.071 16.63 37.071 37.07c-.001 20.442-16.63 37.071-37.071 37.071zm50.309-23.653c1.143-4.283 1.761-8.779 1.761-13.417s-.618-9.134-1.761-13.417l53.314 5.46v15.914zm106.418 39.051v29.142h-22.352v-29.142zm52.683 98.447c-9.659 9.769-21.053 16.323-32.784 23.174-2.09 1.225-3.54-1.613-2.336-2.909l16.874-18.175c2.744-2.957 2.659-7.554-.193-10.406l-28.702-28.703c-4.608-4.607-10.66-6.911-16.713-6.911-6.051 0-12.104 2.303-16.711 6.909l-28.711 28.704c-2.9 2.9-2.89 7.743.022 10.63l16.619 16.476c1.274 1.263-.098 4.068-2.179 2.978-11.817-6.18-23.336-12.2-32.903-21.767-1.644-1.644-1.643-4.381 0-6.024l48.289-48.28h31.139l48.289 48.28c1.643 1.643 1.643 4.38 0 6.024z"/></g></svg>