<?xml version="1.0" encoding="iso-8859-1"?>
<!-- Generator: Adobe Illustrator 19.0.0, SVG Export Plug-In . SVG Version: 6.00 Build 0)  -->
<svg version="1.1" id="Capa_1" xmlns="http://www.w3.org/2000/svg" xmlns:xlink="http://www.w3.org/1999/xlink" x="0px" y="0px"
	 viewBox="0 0 512 512" style="enable-background:new 0 0 512 512;" xml:space="preserve">
<g>
	<g>
		<path d="M510.503,313.551l-28.831-156.58C474.847,119.903,442.601,93,404.997,93h-52.953c-3.604,0-7.088,1.298-9.813,3.655
			l-30.464,26.351H200.232l-30.464-26.351c-2.726-2.358-6.209-3.655-9.813-3.655h-52.953c-37.604,0-69.85,26.903-76.675,63.97
			L1.496,313.551c-8.802,47.798,22.121,93.823,69.641,103.594c33.325,6.851,67.042-5.581,87.995-32.445l32.934-42.225h127.869
			l32.934,42.225c20.825,26.701,54.464,39.337,87.995,32.445C488.272,407.397,519.323,361.45,510.503,313.551z M434.821,387.762
			c-22.068,4.539-44.409-3.704-58.297-21.51l-37.438-47.999c-2.842-3.644-7.206-5.775-11.828-5.775H184.741
			c-4.622,0-8.986,2.131-11.828,5.775l-37.438,47.999c-13.888,17.806-36.227,26.049-58.297,21.51
			c-31.486-6.473-52.028-37.014-46.179-68.779L59.83,162.401c4.204-22.833,24.042-39.405,47.171-39.405h47.365l30.464,26.351
			c2.726,2.358,6.209,3.655,9.813,3.655h122.71c3.604,0,7.088-1.298,9.813-3.655l30.464-26.351h47.365
			c23.129,0,42.967,16.572,47.171,39.405L481,318.982C486.844,350.72,466.335,381.284,434.821,387.762z"/>
	</g>
</g>
<g>
	<g>
		<path d="M166.791,217.813h-21.733v-21.732c0-8.283-6.716-14.998-15-14.998s-15,6.715-15,14.998v21.732H93.326
			c-8.284,0-15,6.715-15,14.998c0,8.283,6.716,14.998,15,14.998h21.733v21.731c0,8.283,6.716,14.998,15,14.998s15-6.715,15-14.998
			v-21.73h21.733c8.284,0,15-6.715,15-14.998C181.791,224.528,175.075,217.813,166.791,217.813z"/>
	</g>
</g>
<g>
	<g>
		<path d="M387.348,175.836c-31.419,0-56.98,25.559-56.98,56.976c0,31.416,25.561,56.975,56.98,56.975s56.98-25.559,56.98-56.975
			C444.327,201.394,418.766,175.836,387.348,175.836z M387.348,259.789c-14.877,0-26.98-12.102-26.98-26.978
			c0-14.876,12.103-26.979,26.98-26.979s26.98,12.103,26.98,26.979C414.328,247.687,402.225,259.789,387.348,259.789z"/>
	</g>
</g>
<g>
</g>
<g>
</g>
<g>
</g>
<g>
</g>
<g>
</g>
<g>
</g>
<g>
</g>
<g>
</g>
<g>
</g>
<g>
</g>
<g>
</g>
<g>
</g>
<g>
</g>
<g>
</g>
<g>
</g>
</svg>
