<?xml version="1.0" encoding="iso-8859-1"?>
<!-- Generator: Adobe Illustrator 19.0.0, SVG Export Plug-In . SVG Version: 6.00 Build 0)  -->
<svg version="1.1" id="Capa_1" xmlns="http://www.w3.org/2000/svg" xmlns:xlink="http://www.w3.org/1999/xlink" x="0px" y="0px"
	 viewBox="0 0 512 512" style="enable-background:new 0 0 512 512;" xml:space="preserve">
<g>
	<g>
		<path d="M455.837,5.167h-53.434c-4.142,0-7.5,3.358-7.5,7.5c0,4.142,3.358,7.5,7.5,7.5h53.434
			C478.534,20.167,497,38.632,497,61.33v389.34c0,20.135-14.536,36.928-33.662,40.465v-180.15c0-20.043-16.306-36.35-36.35-36.35
			H85.013c-20.043,0-36.35,16.306-36.35,36.35v180.15C29.536,487.598,15,470.805,15,450.67V61.33
			c0-22.697,18.466-41.163,41.163-41.163h316.7c4.142,0,7.5-3.358,7.5-7.5c0-4.142-3.358-7.5-7.5-7.5h-316.7
			C25.194,5.167,0,30.361,0,61.33v389.34c0,30.966,25.191,56.16,56.158,56.163c0.001,0,0.003,0,0.005,0h399.675
			c0.002,0,0.003,0,0.005,0C486.809,506.83,512,481.637,512,450.67V61.33C512,30.361,486.806,5.167,455.837,5.167z M105.759,491.834
			H63.663V310.985c0-11.772,9.577-21.349,21.35-21.349h13.168v107.966c0,3.96,3.21,7.171,7.17,7.171h0.408V491.834z
			 M162.855,491.834h-42.096v-0.001v-87.061h0.408c3.96,0,7.17-3.21,7.17-7.171V289.636h26.94v107.966c0,3.96,3.21,7.171,7.17,7.171
			h0.408V491.834z M177.855,491.833v-87.061h0.408c3.96,0,7.17-3.21,7.17-7.171V289.636h34.518v202.197H177.855z M277.048,491.834
			h-42.096v-0.001V289.636h34.518v107.966c0,3.96,3.21,7.171,7.17,7.171h0.408V491.834z M334.146,491.834h-42.097v-0.001v-87.061
			h0.407c3.96,0,7.171-3.21,7.171-7.171V289.636h26.94v107.966c0,3.96,3.21,7.171,7.171,7.171h0.408V491.834z M391.243,491.834
			h-42.098v-0.001v-87.061h0.408c3.96,0,7.171-3.21,7.171-7.171V289.636h26.94v107.966c0,3.96,3.21,7.171,7.171,7.171h0.408V491.834
			z M448.338,491.833h-42.096v-87.061h0.408c3.96,0,7.17-3.21,7.17-7.171V289.636h13.168c11.772,0,21.35,9.577,21.35,21.349V491.833
			z"/>
	</g>
</g>
<g>
	<g>
		<path d="M269.6,108.1H141.391c-4.142,0-7.5,3.358-7.5,7.5c0,4.142,3.358,7.5,7.5,7.5H269.6c4.107,0,7.448,3.342,7.448,7.449
			v73.949c0,4.107-3.341,7.448-7.448,7.448H71.111c-4.107,0-7.448-3.341-7.448-7.448v-73.949c0-4.107,3.341-7.449,7.448-7.449
			h40.761c4.142,0,7.5-3.358,7.5-7.5c0-4.142-3.358-7.5-7.5-7.5H71.111c-12.378,0-22.448,10.07-22.448,22.449v73.949
			c0,12.378,10.07,22.448,22.448,22.448H269.6c12.378,0,22.448-10.07,22.448-22.448v-73.949
			C292.048,118.171,281.978,108.1,269.6,108.1z"/>
	</g>
</g>
<g>
	<g>
		<path d="M97.56,149.919c-4.142,0-7.5,3.358-7.5,7.5v13.175c0,4.142,3.358,7.5,7.5,7.5c4.142,0,7.5-3.358,7.5-7.5v-13.175
			C105.06,153.277,101.702,149.919,97.56,149.919z"/>
	</g>
</g>
<g>
	<g>
		<path d="M243.151,149.919c-4.142,0-7.5,3.358-7.5,7.5v13.175c0,4.142,3.358,7.5,7.5,7.5c4.143,0,7.5-3.358,7.5-7.5v-13.175
			C250.651,153.277,247.294,149.919,243.151,149.919z"/>
	</g>
</g>
<g>
	<g>
		<path d="M193.258,164.03c-3.118-2.726-7.856-2.408-10.583,0.711c-2.991,3.422-7.482,5.385-12.32,5.385s-9.329-1.963-12.32-5.385
			c-2.726-3.118-7.464-3.437-10.583-0.71c-3.118,2.726-3.437,7.464-0.71,10.583c5.84,6.68,14.447,10.512,23.613,10.512
			c9.167,0,17.774-3.832,23.614-10.513C196.695,171.494,196.376,166.756,193.258,164.03z"/>
	</g>
</g>
<g>
	<g>
		<path d="M170.355,36.526c-16.075,0-29.153,13.078-29.153,29.153c0,16.075,13.078,29.153,29.153,29.153
			c16.075,0,29.153-13.078,29.153-29.153C199.508,49.604,186.43,36.526,170.355,36.526z M170.355,79.832
			c-7.803,0-14.153-6.349-14.153-14.153c0.001-7.804,6.35-14.153,14.153-14.153c7.804,0,14.153,6.349,14.153,14.153
			C184.508,73.483,178.158,79.832,170.355,79.832z"/>
	</g>
</g>
<g>
	<g>
		<path d="M97.56,36.526c-16.075,0-29.153,13.078-29.153,29.153c0,16.075,13.077,29.153,29.153,29.153
			c16.075,0,29.153-13.078,29.153-29.153C126.713,49.604,113.635,36.526,97.56,36.526z M97.56,79.832
			c-7.803,0-14.153-6.349-14.153-14.153c0-7.804,6.349-14.153,14.153-14.153s14.153,6.349,14.153,14.153
			C111.713,73.483,105.363,79.832,97.56,79.832z"/>
	</g>
</g>
<g>
	<g>
		<path d="M243.151,36.526c-16.075,0-29.153,13.078-29.153,29.153c0,16.075,13.078,29.153,29.153,29.153
			s29.153-13.079,29.153-29.153C272.304,49.604,259.226,36.526,243.151,36.526z M243.152,79.832c-7.804,0-14.153-6.35-14.153-14.153
			c0-7.804,6.349-14.153,14.153-14.153c7.804,0,14.153,6.349,14.153,14.153C257.305,73.483,250.956,79.832,243.152,79.832z"/>
	</g>
</g>
<g>
	<g>
		<path d="M368.767,84.604V64.76c0-8.534-6.943-15.476-15.477-15.476h-14.257c-8.533,0-15.476,6.942-15.476,15.476v19.844
			c-7.358,2.978-12.568,10.187-12.568,18.6c0,8.414,5.21,15.622,12.568,18.601v102.271c0,8.533,6.942,15.476,15.476,15.476h14.257
			c8.534,0,15.477-6.942,15.477-15.476V121.804c7.358-2.978,12.568-10.187,12.568-18.6
			C381.335,94.791,376.125,87.582,368.767,84.604z M338.557,64.76c0-0.263,0.214-0.476,0.476-0.476h14.257
			c0.263,0,0.477,0.213,0.477,0.476v18.375h-15.21V64.76z M353.767,224.076c0,0.262-0.214,0.476-0.477,0.476h-14.257
			c-0.262,0-0.476-0.213-0.476-0.476V123.272h15.21V224.076z M361.267,108.272h-30.21h-0.001c-2.794,0-5.068-2.274-5.068-5.068
			s2.274-5.068,5.068-5.068h30.21c2.795,0,5.068,2.274,5.068,5.068S364.062,108.271,361.267,108.272z"/>
	</g>
</g>
<g>
	<g>
		<path d="M451.577,127.829V64.76c0-8.534-6.943-15.476-15.477-15.476h-14.257c-8.533,0-15.476,6.942-15.476,15.476v63.068
			c-7.358,2.979-12.568,10.187-12.568,18.601c0,8.413,5.21,15.622,12.568,18.6v59.047c0,8.534,6.943,15.476,15.476,15.476H436.1
			c8.534,0,15.477-6.942,15.477-15.476v-59.047c7.358-2.978,12.568-10.187,12.568-18.6
			C464.145,138.015,458.935,130.807,451.577,127.829z M421.367,64.76c0-0.263,0.213-0.476,0.476-0.476H436.1
			c0.263,0,0.477,0.213,0.477,0.476v61.6h-15.21V64.76z M436.577,224.076c0,0.263-0.214,0.476-0.477,0.476h-14.257
			c-0.262,0-0.476-0.213-0.476-0.476v-57.579h15.21V224.076z M444.077,151.496h-30.21c-2.795,0-5.068-2.274-5.068-5.068
			s2.273-5.068,5.068-5.068h30.21h0.001c2.794,0,5.067,2.274,5.067,5.068S446.871,151.496,444.077,151.496z"/>
	</g>
</g>
<g>
</g>
<g>
</g>
<g>
</g>
<g>
</g>
<g>
</g>
<g>
</g>
<g>
</g>
<g>
</g>
<g>
</g>
<g>
</g>
<g>
</g>
<g>
</g>
<g>
</g>
<g>
</g>
<g>
</g>
</svg>
