<svg height="681pt" viewBox="-21 -57 681.33464 681" width="681pt" xmlns="http://www.w3.org/2000/svg"><path d="m212.65625 248.609375v17.636719c0 5.167968 4.191406 9.355468 9.355469 9.355468 5.167969 0 9.359375-4.1875 9.359375-9.355468v-17.636719c0-5.167969-4.191406-9.359375-9.359375-9.359375-5.164063 0-9.355469 4.191406-9.355469 9.359375zm0 0"/><path d="m426.261719 266.246094v-17.636719c0-5.167969-4.1875-9.359375-9.355469-9.359375s-9.359375 4.191406-9.359375 9.359375v17.636719c0 5.167968 4.191406 9.355468 9.359375 9.355468s9.355469-4.191406 9.355469-9.355468zm0 0"/><path d="m336.464844 258.859375c-4.136719 4.730469-10.335938 7.441406-17.007813 7.441406-6.667969 0-12.867187-2.710937-17.007812-7.441406-3.394531-3.890625-9.3125-4.285156-13.199219-.886719-3.890625 3.402344-4.289062 9.3125-.886719 13.203125 7.6875 8.796875 19.019531 13.839844 31.09375 13.839844 12.078125 0 23.40625-5.042969 31.097657-13.839844 3.402343-3.890625 3.003906-9.800781-.886719-13.203125-3.886719-3.398437-9.800781-3.003906-13.203125.886719zm0 0"/><path d="m488.089844 54.359375c0-14.621094-11.894532-26.515625-26.519532-26.515625s-26.523437 11.894531-26.523437 26.515625c0 14.625 11.898437 26.519531 26.523437 26.519531s26.519532-11.894531 26.519532-26.519531zm-34.328125 0c0-4.304687 3.503906-7.804687 7.808593-7.804687 4.300782 0 7.804688 3.5 7.804688 7.804687 0 4.308594-3.503906 7.804687-7.804688 7.804687-4.304687 0-7.808593-3.496093-7.808593-7.804687zm0 0"/><path d="m530.597656 80.878906c14.625 0 26.523438-11.894531 26.523438-26.519531 0-14.621094-11.898438-26.515625-26.523438-26.515625-14.617187 0-26.515625 11.894531-26.515625 26.515625 0 14.625 11.898438 26.519531 26.515625 26.519531zm0-34.324218c4.308594 0 7.808594 3.5 7.808594 7.804687 0 4.308594-3.503906 7.804687-7.808594 7.804687-4.300781 0-7.800781-3.496093-7.800781-7.804687 0-4.304687 3.5-7.804687 7.800781-7.804687zm0 0"/><path d="m579.742188-2.246094h-393.378907c-5.164062 0-9.355469 4.191406-9.355469 9.359375 0 5.164063 4.191407 9.355469 9.355469 9.355469h393.378907c22.265624 0 40.378906 18.113281 40.378906 40.378906v89.519532c0 22.265624-18.113282 40.378906-40.378906 40.378906h-58.914063v-75.78125h26.933594c5.167969 0 9.359375-4.1875 9.359375-9.355469 0-5.171875-4.191406-9.355469-9.359375-9.355469h-456.605469c-5.167969 0-9.359375 4.183594-9.359375 9.355469 0 5.167969 4.191406 9.355469 9.359375 9.355469h26.933594v75.78125h-58.914063c-22.265625.003906-40.378906-18.113282-40.378906-40.378906v-89.511719c0-22.269531 18.113281-40.386719 40.378906-40.386719h89.761719c5.171875 0 9.355469-4.191406 9.355469-9.355469 0-5.167969-4.183594-9.359375-9.355469-9.359375h-89.761719c-32.582031 0-59.0937498 26.511719-59.0937498 59.101563v89.511719c0 32.585937 26.5117188 59.097656 59.0937498 59.097656h4.324219v286.472656h-.722656c-22.066406 0-40.019532 17.953125-40.019532 40.019531v8.625c0 13.304688 10.820313 24.125 24.125 24.125h106.539063c13.304687 0 24.121094-10.820312 24.121094-24.125v-8.625c0-22.066406-17.953125-40.019531-40.019531-40.019531h-.71875v-69.710938c6.4375 4.199219 14.113281 6.648438 22.351562 6.648438h239.3125c5.167969 0 9.355469-4.191406 9.355469-9.355469 0-5.171875-4.1875-9.359375-9.355469-9.359375h-239.3125c-12.324219 0-22.351562-10.027344-22.351562-22.351562v-276.84375h365.308593v276.84375c0 12.324218-10.027343 22.351562-22.351562 22.351562h-43.890625c-5.164063 0-9.355469 4.1875-9.355469 9.359375 0 5.164063 4.191406 9.355469 9.355469 9.355469h43.890625c8.238281 0 15.914062-2.449219 22.351562-6.648438v69.710938h-.71875c-22.074219 0-40.027343 17.953125-40.027343 40.019531v8.625c0 13.304688 10.824218 24.125 24.128906 24.125h106.539062c13.300782 0 24.125-10.820312 24.125-24.125v-8.625c0-22.066406-17.953125-40.019531-40.027344-40.019531h-.71875v-286.472656h4.320313c32.589844 0 59.101563-26.511719 59.101563-59.097656v-89.511719c0-32.589844-26.511719-59.101563-59.09375-59.101563zm-420.90625 534.203125v8.625c0 2.984375-2.425782 5.414063-5.414063 5.414063h-106.539063c-2.984374 0-5.410156-2.429688-5.410156-5.414063v-8.625c0-11.75 9.554688-21.308593 21.308594-21.308593h74.75c11.746094 0 21.304688 9.558593 21.304688 21.308593zm-40.746094-326.492187v286.472656h-35.878906v-286.472656zm479.355468 326.492187v8.625c0 2.984375-2.425781 5.414063-5.410156 5.414063h-106.539062c-2.988282 0-5.414063-2.429688-5.414063-5.414063v-8.625c0-11.75 9.5625-21.308593 21.3125-21.308593h74.746094c11.75 0 21.304687 9.558593 21.304687 21.308593zm-40.742187-40.019531h-35.875v-286.472656h35.875zm0 0"/></svg>